# xmcd
#
# Track frame offsets: 
#        150
#        15426
#        37451
#        53387
#        72466
#        85158
#        97872
#        116615
#        137845
#        161127
#        185791
#
# Disc length: 2621 seconds
#
# Revision: 0
# Processed by: cddbd v1.5.1PL0 Copyright (c) Steve Scherf et al.
# Submitted via: ExactAudioCopy v0.95b3
#
DISCID=940a3b0b
DTITLE=Angel Band - Angel Band
DYEAR=2005
DGENRE=
TTITLE0=Don't Get Too Close
TTITLE1=Angel From Montgomery
TTITLE2=Shake the Sugar Tree
TTITLE3=Home
TTITLE4=Bluebird
TTITLE5=One Voice
TTITLE6=Maybe it was Memphis
TTITLE7=Angel of the Morning
TTITLE8=Angel Band
TTITLE9=Dear Mary
TTITLE10=Long Journey
EXTD=
EXTT0=
EXTT1=
EXTT2=
EXTT3=
EXTT4=
EXTT5=
EXTT6=
EXTT7=
EXTT8=
EXTT9=
EXTT10=
PLAYORDER=
